<?xml version="1.0" encoding="utf-8"?>
<!-- Generator: Adobe Illustrator 26.3.1, SVG Export Plug-In . SVG Version: 6.00 Build 0)  -->
<svg version="1.1" id="Capa_1" xmlns="http://www.w3.org/2000/svg" xmlns:xlink="http://www.w3.org/1999/xlink" x="0px" y="0px"
	 viewBox="0 0 1163.79 434.28" style="enable-background:new 0 0 1163.79 434.28;" xml:space="preserve">
<style type="text/css">
	.st0{fill:#FF0000;}
</style>
<g>
	<path class="st0" d="M697.09,298.32c0-47.85,21.95-60.23,21.95-90.62s-18.58-36.02-35.46-36.02c-11.48,0-39.9,7.96-51.64,18.18
		c-2.99-10.24-9.23-17.42-22.09-17.42c-22.52,0-36.59,21.39-36.59,21.39s10.69,13.51,10.69,47.28c0,23.1-8.95,42.87-14.61,56.23
		c-4.28,6.85-8.8,11.87-12.54,11.87c-20.72,0,8.85-60.51,8.85-65.93c0-0.01,0-0.02,0-0.02c0.9-3.34,1.39-6.43,1.39-9.19
		c0-25.7-17.33-27.2-25.96-26.78c0.02-0.92,0.07-1.81,0.07-2.77c0-34.05-37.43-36.59-50.94-36.59c-28.42,0-74.71,24.77-74.71,95.69
		c0,27.02,11.37,70.92,56.4,70.92c13.37,0,29.43-9.09,44.52-22.12c2.75,8.57,10.66,22.12,33.17,22.12c8.06,0,15.85-1.84,23.02-4.62
		c5.51,7.09,13.67,13.06,23.72,13.06c19.14,0,26.22-8.44,26.22-8.44s-4.12-14.64-4.12-35.46c0-11.13,2.81-31.63,8.6-49.05
		c3.02-9.08,10.69-23,17.89-23c29.27,0-3.15,47.8-3.15,89.87c0,0-7.17,63.95,55.31,63.95c14.64,0,47.85-16.26,47.85-32.28
		C733.68,348.57,697.09,335.38,697.09,298.32 M486.42,301.05c-9.44,0-13.66-19.42-13.66-37.99s8.16-57.98,23.92-57.98
		c15.48,0-4.55,41.37-4.55,41.37s9.89,3.96,20.78,2.75C510.17,269.62,501.99,301.05,486.42,301.05"/>
	<path class="st0" d="M266.01,118.14c35.64,0-58.5,126.29-58.5,185.39c0,0-3.38,50.66,43.48,50.66c18.58,0,38.84-13.09,38.84-13.09
		s-1.52-21.95-1.52-40.53c0-27.86,26.42-154.93,75.39-154.93c35.04,0-54.46,86.97-54.46,202.21c0,55.3,51.31,86.42,93.95,86.42
		c21.53,0,84.01-7.29,84.01-86.44c-2.23,2.23-14.44,7.37-33.84,4.48c-28.98-4.32-59.21-36.77-59.21-77.9
		c0-98.1,59.28-123.16,59.28-153.65c0-19.04-14.06-27.54-28.3-31.25c-13.91-3.63-28-2.69-29.34-2.54
		c-8.61,0.94-16.78,4.06-24.33,8.41c-29.26,16.87-49.13,52.38-49.13,52.38S365.4,34.62,296.17,34.62
		c-47.28,0-75.57,70.92-75.57,70.92S246.77,0,147.99,0C49.21,0,0,100.12,0,148.63c0,29.2,7.14,84.35,57.1,84.35
		c54.5,0,90.83-51.26,90.83-88.89c0,0-20.76,1.3-20.76-31.79c0-26.6,24.65-46.06,40.87-46.06c13.62,0,22.71,14.92,22.71,33.74
		c0,63.58-95.37,144.68-95.37,199.83c0,45.42,35.68,47.36,44.77,47.36c20.05,0,37.09-8.06,46.55-17.52
		C179.23,248.23,232.98,118.14,266.01,118.14"/>
	<path class="st0" d="M1089.91,240.93c10.16,1.09,15.7,11.11,14.23,21.77c-1.46,10.53-9.77,17.59-20.43,16.56
		c-11.85-1.14-16.93-11.75-15.26-21.28C1070.19,248.15,1078.95,239.76,1089.91,240.93 M1074.52,258.33
		c-1.22,6.58,2.16,17.41,10.08,17.81c8.22,0.4,12.92-7.06,13.82-14.12c0.94-7.27-1.59-17.04-8.72-17.82
		C1081.92,243.33,1075.89,251.15,1074.52,258.33 M1078.76,254.22c-0.6-0.43-0.95-0.83-0.16-1.35c1.98-2.03,4.99-3.67,7.3-4.62
		c2.31-0.95,5.28-0.62,7.69,1.57c2.8,2.5,2.47,4.8,1.5,6.88c-1.24,2.74-4.26,5.53-7.16,7.53c1.91,1.65,4.36,3.61,5.47,4.31
		c0.78,0.49,0.77,0.9,0.1,1.38c-1.64,1.21-3.52,1.24-5.35,0.17c-1.08-0.64-3.12-2.09-4.93-3.71c-0.25,1.86-0.47,3.64-0.56,5.09
		c-0.06,0.77-0.56,1.11-1.23,0.84c-2.09-0.83-3.11-2.23-3.13-4.18c-0.07-3.08,0.66-7.97,1.62-13.16
		C1079.57,254.77,1079.21,254.51,1078.76,254.22 M1091.2,251.95c-0.68-0.73-2.96,0.13-5.7,2.14c-0.55,2.46-1.14,4.99-1.53,7.45
		C1090.26,256.59,1091.88,252.68,1091.2,251.95"/>
	<path class="st0" d="M1103.12,86.11c-43.94,0-68.14,22.33-68.14,36.4c3.51,0,44.79-0.48,44.79,44.17
		c0,13.07-10.23,35.53-24.45,41.74c-4.38-44.19-24.31-61.31-55.09-61.31c-35.03,0-51.23,23.95-51.23,44.24
		c0,20.29,20.5,31.96,20.5,31.96s-46.93,3.69-46.93,63.3c0,5.8,1.42,13.39,4.92,20.83c-1.62,1.03-3.27,1.68-4.92,1.77
		c-36.96,2.1-15.4-93.83,13.93-164.36c83.34-2.88,109.17-67.21,109.17-91.9c0-35.47-14.62-42.68-40.94-42.68
		c-47.64,0-87.52,40.32-113.7,98.02c-47.68-12.86-60.13-107.6-155.7-107.6c-32.23,0-83.48,28.16-83.48,80.56
		c0,34.71,19.28,74.64,71.54,74.64c0,0,8.49-42.08,55.97-42.08c33.81-0.8,60.7,13.76,91.45,23.25c9.36,2.81,26.74,7.39,40.57,7.37
		c0,0-22.28,0.46-36.25,6.45c-3.77,12.47-6.97,25.39-9.58,38.58c-5.37,9.13-12.7,15.61-18.46,19.64c-4.24-44.71-24.22-62-55.17-62
		c-35.03,0-51.23,23.95-51.23,44.24c0,20.29,20.5,31.96,20.5,31.96s-46.93,3.69-46.93,63.3c0,16.59,11.57,47.94,50.62,47.94
		c38.33,0,80.23-44.29,82.92-100.59c4.95-3.28,9.31-7.01,12.39-9.97c-1.76,15.56-2.68,31.31-2.68,47c0,36.29,14.83,82.36,57.45,72
		c10.09-2.45,18.83-9.97,25.89-18.56c7.69,6.02,18.19,10.12,32.31,10.12c37.57,0,78.56-42.57,82.69-97.3
		c46.6-10.76,107.9-42.79,107.9-95.32C1163.79,100.18,1127.09,86.11,1103.12,86.11z M985.31,71.81c28.56,0-5.69,41.75-37.28,47.45
		C961.74,91.38,975.71,71.81,985.31,71.81z M792.1,193.73c4.85,0,19.34,1.06,23.17,25.53c-6.41,0.93-11.81,0.97-15.19,0.97
		c-6.91,0-17.51-6.92-17.51-13.6C782.58,199.95,786.49,193.73,792.1,193.73z M785.72,296.44c-5.76,0-12.39-5.53-12.39-17.82
		c0-16.59,14.92-25.07,25.99-25.07c0,0,1.08-7.35,1.08-10.58c4.32,0,9.72-0.02,15.46-0.71
		C813.41,274.45,798.93,296.44,785.72,296.44z M1000.39,193.73c4.85,0,19.34,1.06,23.17,25.53c-6.41,0.93-11.81,0.97-15.19,0.97
		c-6.91,0-17.51-6.92-17.51-13.6C990.86,199.95,994.78,193.73,1000.39,193.73z M994.01,296.44c-5.76,0-12.39-5.53-12.39-17.82
		c0-16.59,14.93-25.07,25.99-25.07c0,0,1.08-7.35,1.08-10.58c4.32,0,9.72-0.02,15.46-0.71
		C1021.7,274.45,1007.21,296.44,994.01,296.44z"/>
</g>
</svg>
